<svg width="145" height="145" viewBox="0 0 145 145" fill="none" xmlns="http://www.w3.org/2000/svg">
  <rect width="145" height="145" fill="black" />
  <path
    d="M29.25 57.375H101.672L90.4648 68.582C88.0234 71.0234 88.0234 74.9785 90.4648 77.4199C91.6719 78.6445 93.2734 79.25 94.875 79.25C96.4766 79.25 98.0742 78.6396 99.293 77.4189L121.168 55.5439C123.609 53.1025 123.609 49.1475 121.168 46.7061L99.293 24.8311C96.8516 22.3896 92.8965 22.3896 90.4551 24.8311C88.0137 27.2725 88.0137 31.2275 90.4551 33.6689L101.672 44.875H29.25C25.7949 44.875 23 47.6699 23 51.125C23 54.5801 25.7949 57.375 29.25 57.375ZM116.75 88.625H44.3477L55.5547 77.418C57.9961 74.9766 57.9961 71.0215 55.5547 68.5801C53.1133 66.1387 49.1582 66.1387 46.7168 68.5801L24.8418 90.4551C22.4004 92.8965 22.4004 96.8516 24.8418 99.293L46.7168 121.168C47.9219 122.395 49.5234 123 51.125 123C52.7266 123 54.3242 122.39 55.543 121.169C57.9844 118.728 57.9844 114.772 55.543 112.331L44.3477 101.125H116.75C120.205 101.125 123 98.3301 123 94.875C123 91.4199 120.207 88.625 116.75 88.625Z"
    fill="white" />
</svg>